# xmcd
#
# Track frame offsets: 
#        150
#        13193
#        27984
#        41530
#        50372
#        62643
#        79203
#        94259
#        107640
#        123128
#
# Disc length: 2040 seconds
#
# Revision: 2
# Processed by: cddbd v1.5.2PL0 Copyright (c) Steve Scherf et al.
# Submitted via: ExactAudioCopy v0.95a4
#
DISCID=7a07f60a
DTITLE=Johnny Trouble - Rambling Man
DYEAR=2009
DGENRE=Rock and Roll
TTITLE0=Highway Blues
TTITLE1=Southbound Train
TTITLE2=Small Town Blues
TTITLE3=Ready For Love
TTITLE4=Wagon Train
TTITLE5=Drifter
TTITLE6=Rambling Man
TTITLE7=Under A Blanket Of Stars
TTITLE8=Trail To Nowhere
TTITLE9=Before A Storm Comes Rollin In
EXTD=
EXTT0=
EXTT1=
EXTT2=
EXTT3=
EXTT4=
EXTT5=
EXTT6=
EXTT7=
EXTT8=
EXTT9=
PLAYORDER=
